# xmcd
#
# Track frame offsets:
#	150
#	15286
#	33142
#	47291
#	59835
#	73288
#	93213
#	105290
#	122656
#	133552
#	144170
#	159685
#	169397
#	179423
#	195947
#	208986
#
# Disc length: 2982 seconds
#
# Revision: 1
# Processed by: cddbd v1.5.2PL0 Copyright (c) Steve Scherf et al.
# Submitted via: audiograbber 1.83.01
#
DISCID=d60ba410
DTITLE=Dr Boogie - Grab This And Dance
DYEAR=1998
DGENRE=Boogie
TTITLE0=Canned Heat - House Of Blue Lights
TTITLE1=Little Johnny and The Giants - Dana Lee
TTITLE2=George Bedard and The Kingpins - I'm Coming Home
TTITLE3=Cleo Brown - Cleo's Boogie
TTITLE4=Brian Auger - In And Out
TTITLE5=Ron Hacker and The Hacksaws - House Rent Blues
TTITLE6=Benoit Blue Boy - Cricketer's Le Retour
TTITLE7=Harmonica Slim - Shake Yo' Booty
TTITLE8=Rene Hall's Ochestra (feat. Willy Joe) - Twitchy
TTITLE9=Chuck Bowers - Pig Pen Boogie
TTITLE10=Go To Blazes - Driving Me Out Of My Mind
TTITLE11=Jerry Mc Cain - Steady
TTITLE12=Slim Gaillard - F'ck Off (The Dirty Rooster)
TTITLE13=NRBQ - Rocket In My Pocket
TTITLE14=The Salamanders - Miss Vera Lee
TTITLE15=Johnny Nitro and The Door Slammers - Nitro Express
EXTD=
EXTT0=
EXTT1=
EXTT2=
EXTT3=
EXTT4=
EXTT5=
EXTT6=
EXTT7=
EXTT8=
EXTT9=
EXTT10=
EXTT11=
EXTT12=
EXTT13=
EXTT14=
EXTT15=
PLAYORDER=
